<svg width="24" height="25" viewBox="0 0 24 25" fill="none" xmlns="http://www.w3.org/2000/svg">
<path d="M7.73559 4.89691L14.6521 11.9244C14.8038 12.0777 14.8889 12.2847 14.8889 12.5004C14.8889 12.7161 14.8038 12.9231 14.6521 13.0764L7.73709 20.1054C7.58548 20.2597 7.50052 20.4674 7.50052 20.6837C7.50052 20.9 7.58548 21.1076 7.73709 21.2619C7.81116 21.3379 7.89968 21.3983 7.99745 21.4395C8.09521 21.4807 8.20024 21.502 8.30634 21.502C8.41244 21.502 8.51747 21.4807 8.61524 21.4395C8.713 21.3983 8.80153 21.3379 8.87559 21.2619L15.7906 14.2359C16.245 13.7731 16.4996 13.1505 16.4996 12.5019C16.4996 11.8533 16.245 11.2307 15.7906 10.7679L8.87559 3.74191C8.8015 3.66571 8.71289 3.60514 8.61498 3.56377C8.51708 3.52241 8.41187 3.5011 8.30559 3.5011C8.19931 3.5011 8.09411 3.52241 7.9962 3.56377C7.8983 3.60514 7.80968 3.66571 7.73559 3.74191C7.58398 3.8962 7.49902 4.10385 7.49902 4.32016C7.49902 4.53647 7.58398 4.74413 7.73559 4.89841" fill="#27697F"/>
</svg>
