<svg width="24" height="24" viewBox="0 0 24 24" fill="none" xmlns="http://www.w3.org/2000/svg">
<path d="M3.87277 17.02L2.66877 9.84C2.48677 8.754 2.39577 8.212 2.68777 7.856C2.97877 7.5 3.51477 7.5 4.58577 7.5H19.4138C20.4848 7.5 21.0208 7.5 21.3118 7.856C21.6038 8.212 21.5118 8.754 21.3308 9.84L20.1268 17.02C19.7278 19.4 19.5288 20.589 18.7138 21.295C17.8998 22 16.7258 22 14.3778 22H9.62177C7.27377 22 6.09977 22 5.28577 21.294C4.47077 20.589 4.27177 19.399 3.87277 17.019M17.4998 7.5C17.4998 6.04131 16.9203 4.64236 15.8889 3.61091C14.8574 2.57946 13.4585 2 11.9998 2C10.5411 2 9.14213 2.57946 8.11068 3.61091C7.07923 4.64236 6.49977 6.04131 6.49977 7.5" stroke="#27697F" stroke-width="1.5" stroke-linecap="round" stroke-linejoin="round"/>
</svg>
