<svg width="25" height="24" viewBox="0 0 25 24" fill="none" xmlns="http://www.w3.org/2000/svg">
<path d="M17.3002 20.28C16.3202 21.23 15.2502 21.08 14.2202 20.63C13.1302 20.17 12.1302 20.15 10.9802 20.63C9.54016 21.25 8.78016 21.07 7.92016 20.28C3.04016 15.25 3.76016 7.59 9.30016 7.31C10.6502 7.38 11.5902 8.05 12.3802 8.11C13.5602 7.87 14.6902 7.18 15.9502 7.27C17.4602 7.39 18.6002 7.99 19.3502 9.07C16.2302 10.94 16.9702 15.05 19.8302 16.2C19.2602 17.7 18.5202 19.19 17.2902 20.29L17.3002 20.28ZM12.2802 7.25C12.1302 5.02 13.9402 3.18 16.0202 3C16.3102 5.58 13.6802 7.5 12.2802 7.25Z" fill="black"/>
</svg>
